# xmcd
#
# Track frame offsets:
#	150
#	10490
#	26652
#	37550
#	51089
#	68163
#	81751
#	97868
#	106983
#	117572
#	128581
#	140057
#
# Disc length: 2053 seconds
#
# Revision: 0
# Processed by: cddbd v1.5.2PL0 Copyright (c) Steve Scherf et al.
# Submitted via: dBpowerAMP V4.0
#
DISCID=9608030c
DTITLE=J.D. Crowe and the New South - Lefty's Old Guitar
DYEAR=2006
DGENRE=Bluegrass
TTITLE0=Mississippi River Raft
TTITLE1=Lefty's Old Guitar
TTITLE2=Just Loving You
TTITLE3=Rovin' Gambler
TTITLE4=In My Next Life
TTITLE5=You Can Be A Millionaire With Me
TTITLE6=I Only Wish You Knew
TTITLE7=Loneliness
TTITLE8=I'm A Hobo
TTITLE9=Too Often Left Alone
TTITLE10=Blue Bonnett Lane
TTITLE11=She Knows When You're On My Mind Again
EXTD=
EXTT0=
EXTT1=
EXTT2=
EXTT3=
EXTT4=
EXTT5=
EXTT6=
EXTT7=
EXTT8=
EXTT9=
EXTT10=
EXTT11=
PLAYORDER=
